<?xml version="1.0" encoding="UTF-8"?>
<!DOCTYPE svg PUBLIC "-//W3C//DTD SVG 1.1//EN" "http://www.w3.org/Graphics/SVG/1.1/DTD/svg11.dtd">
<!-- Creator: CorelDRAW 2021 (64-Bit) -->
<svg xmlns="http://www.w3.org/2000/svg" xml:space="preserve" width="8.5in" height="11in" version="1.1" style="shape-rendering:geometricPrecision; text-rendering:geometricPrecision; image-rendering:optimizeQuality; fill-rule:evenodd; clip-rule:evenodd"
viewBox="0 0 8500 11000"
 xmlns:xlink="http://www.w3.org/1999/xlink"
 xmlns:xodm="http://www.corel.com/coreldraw/odm/2003">
 <defs>
  <style type="text/css">
   <![CDATA[
    .fil3 {fill:#FEFEFE;fill-rule:nonzero}
    .fil0 {fill:black;fill-rule:nonzero}
    .fil2 {fill:#026C7A;fill-rule:nonzero}
    .fil1 {fill:#06ABBA;fill-rule:nonzero}
   ]]>
  </style>
 </defs>
 <g id="Layer_x0020_1">
  <metadata id="CorelCorpID_0Corel-Layer"/>
  <g id="_1916182277296">
  </g>
  <path class="fil0" d="M3582.59 6969.4l0 233.75 -268.38 -0.79 0 -232.18 -297.5 0 0 944.44 297.5 0 0 -238.47 269.95 2.36 0 237.69c0,131.44 -106.25,236.9 -236.9,236.9l-365.19 0 0 0c-129.86,0 -235.32,-105.46 -235.32,-235.32l0 -742.18 0 -207.78c0,-129.86 105.46,-235.32 235.32,-235.32l364.4 0c129.86,-0.79 236.11,105.46 236.11,236.9z"/>
  <path class="fil0" d="M4050.09 8153.1l-270.74 0 0 -1421.39 81.07 0c104.68,0 189.68,85 189.68,189.68l0 1231.71z"/>
  <path class="fil0" d="M1441.06 6442.87m0 1710.23l-270.74 0 0 -1899.91 81.07 0c104.68,0 189.68,85 189.68,189.68l-0 1710.23z"/>
  <path class="fil0" d="M5951.57 6731.71l-737.45 0 0 241.62 137.73 -1.57 0 1180.56 270.74 0 0 -1182.13 295.93 0 0 1182.92 268.38 0 0 -1186.07c0,-129.86 -105.46,-235.32 -235.32,-235.32z"/>
  <path class="fil0" d="M7221.06 7914.63l0 -944.44 0 -238.47 -837.41 0 0 238.47 565.88 0 0 235.32 -329.77 0c-129.07,0 -232.96,103.89 -233.75,232.96l-1.57 480.09c-0.79,129.07 104.68,234.54 233.75,234.54l728.8 0 0 -238.47 -125.93 0zm-569.81 0l0 -473.8 298.28 0 0 473.8 -298.28 0z"/>
  <path class="fil0" d="M5082.69 7914.63l0 -944.44 0 -238.47 -836.62 0 0 238.47 565.88 0 0 235.32 -329.77 0c-129.07,0 -232.96,103.89 -233.75,232.96l-1.57 480.09c-0.79,129.07 104.68,234.54 233.75,234.54l728.8 0 0 -238.47 -126.71 0zm-569.81 0l0 -473.8 298.29 0 0 473.8 -298.29 0z"/>
  <path class="fil0" d="M2476.02 7914.63l0 -944.44 0 -238.47 -836.62 0 0 238.47 565.88 0 0 235.32 -329.77 0c-129.07,0 -232.96,103.89 -233.75,232.96l-1.57 480.09c-0.79,129.07 104.68,234.54 233.75,234.54l728.8 0 0 -238.47 -126.71 0zm-569.81 0l0 -473.8 298.29 0 0 473.8 -298.29 0z"/>
  <path class="fil0" d="M8334.72 7799.72l-241.62 273.1c-94.44,107.04 -261.3,107.04 -355.74,0l-240.83 -273.1 0 -1068.01 268.38 0 0 945.23 150.32 210.93 148.75 -210.93 0 -945.23 270.74 0 0 1068.01z"/>
  <path class="fil0" d="M552.5 7208.66l0 232.18 148.75 0 0 473.8 -295.93 0 0 -1422.96 295.93 0 0 240.83 270.74 0 0 -241.62c0,-131.44 -106.25,-236.9 -236.9,-236.9l-365.97 0c-129.86,0 -235.32,105.46 -235.32,235.32l0 207.78 0 1220.69c0,129.86 105.46,235.32 235.32,235.32l365.19 0c131.44,0 236.9,-106.25 236.9,-236.9l0 -474.58 0 -232.18 -418.7 0 0 -0.79z"/>
  <polygon class="fil1" points="3507.04,3186.11 4094.95,2846.9 5131.48,3445.05 4610.46,4387.13 "/>
  <polygon class="fil1" points="3315.79,3296.3 2702.69,4392.64 2702.69,3650.46 "/>
  <polygon class="fil2" points="3471.62,4363.52 4333.43,5344.17 4642.73,5744.77 4094.95,6061.94 2918.33,5396.9 "/>
  <polygon class="fil2" points="4094.95,2846.9 5131.48,3445.05 4610.46,4387.13 "/>
  <polygon class="fil1" points="3471.62,4363.52 4094.95,6061.94 2918.33,5396.9 "/>
  <polygon class="fil1" points="5487.22,4454.03 5487.22,5257.59 4885.14,5605.46 "/>
  <g id="_1916182271584">
   <path class="fil3" d="M5278.66 3399.4l458.84 -418.7c21.25,-19.68 55.09,-1.57 51.16,27.55l-92.87 613.89c-3.15,21.25 -25.97,44.07 -44.86,22.82 0,0 -119.63,-107.82 -166.06,-132.22 -45.65,-24.4 -199.91,-63.75 -199.91,-63.75 -29.91,0 -22.04,-35.42 -6.3,-49.58z"/>
   <path class="fil3" d="M5380.97 3596.16l-231.39 484.81 96.81 46.44 230.6 -484.81 -96.02 -46.44zm-1854.26 382.5l-51.94 11.81c-141.67,31.48 -262.87,122.78 -332.13,249.49l-49.58 86.57 92.87 53.52 50.37 -87.36c55.09,-99.95 150.32,-171.57 262.08,-197.55l51.94 -11.81 -23.61 -104.68zm478.52 221.94c-54.31,-79.49 -129.07,-141.67 -217.22,-180.23l-49.58 -21.25 -42.5 98.38 48.8 21.25c69.26,29.91 129.07,78.7 173.15,144.03l136.16 181.81 85.79 -64.54 -134.59 -179.44zm1067.22 40.93l-129.07 270.74c-25.97,47.22 -59.81,87.36 -101.53,120.42l-42.5 33.06 66.9 84.21 41.71 -33.06c53.52,-42.5 96.81,-93.66 130.65,-155.83l130.65 -273.89 -96.81 -45.65zm-409.26 476.16l-53.52 2.36c-5.51,0 -11.02,0 -15.74,0 -121.99,0 -240.05,-57.45 -314.81,-154.26l-33.06 -42.5 -85 66.11 33.06 42.5c96.81,124.35 242.41,195.97 399.81,195.97 6.3,0 12.59,0 19.68,-0.79l53.52 -1.57 -3.94 -107.82zm-1658.29 -236.11l-266.02 465.93 93.66 53.52 266.02 -465.93 -93.66 -53.52z"/>
  </g>
 </g>
</svg>
