<?xml version="1.0" encoding="utf-8"?>
<!-- Generator: Adobe Illustrator 28.2.0, SVG Export Plug-In . SVG Version: 6.00 Build 0)  -->
<svg version="1.1" id="Layer_1" xmlns="http://www.w3.org/2000/svg" xmlns:xlink="http://www.w3.org/1999/xlink" x="0px" y="0px"
	 viewBox="0 0 1080 268" style="enable-background:new 0 0 1080 268;" xml:space="preserve">
<style type="text/css">
	.st0{fill:#06ABBA;}
</style>
<path class="st0" d="M454.1,104.1v30.4l-34.9-0.1v-30.1h-38.6v122.7h38.6V196l35,0.3V227c0,17-13.8,30.8-30.8,30.8H376h0
	c-16.9,0-30.6-13.7-30.6-30.6v-96.3v-27c0-16.9,13.7-30.6,30.6-30.6h47.3C440.3,73.3,454.1,87.1,454.1,104.1z"/>
<path class="st0" d="M514.8,257.8h-35.2V73.3h10.6c13.6,0,24.6,11,24.6,24.6V257.8z"/>
<path class="st0" d="M176.1,35.8 M176.1,257.8h-35.2V11.2h10.6c13.6,0,24.6,11,24.6,24.6V257.8z"/>
<path d="M761.6,73.3h-95.7v31.4l17.9-0.2v153.3H719V104.3h38.4v153.6h34.8V103.9C792.2,87,778.5,73.3,761.6,73.3z"/>
<path d="M926.4,226.9V104.3V73.3H817.8v30.9h73.5v30.6h-42.8c-16.7,0-30.3,13.5-30.3,30.2l-0.2,62.3c-0.1,16.8,13.5,30.4,30.3,30.4
	h94.6v-30.9H926.4z M852.5,226.9v-61.5h38.8v61.5H852.5z"/>
<path class="st0" d="M648.8,226.9V104.3V73.3H540.2v30.9h73.5v30.6h-42.8c-16.7,0-30.3,13.5-30.3,30.2l-0.2,62.3
	c-0.1,16.8,13.5,30.4,30.3,30.4h94.6v-30.9H648.8z M574.9,226.9v-61.5h38.8v61.5H574.9z"/>
<path class="st0" d="M310.5,226.9V104.3V73.3H201.8v30.9h73.5v30.6h-42.8c-16.7,0-30.3,13.5-30.3,30.2l-0.2,62.3
	c-0.1,16.8,13.5,30.4,30.3,30.4h94.6v-30.9H310.5z M236.5,226.9v-61.5h38.8v61.5H236.5z"/>
<path d="M1071,212l-31.4,35.5c-12.3,13.9-33.9,13.9-46.2,0L962.2,212V73.3H997V196l19.5,27.4l19.3-27.4V73.3h35.2V212z"/>
<path class="st0" d="M60.7,135.2v30.2H80v61.5H41.6V42.1H80v31.2h35.2V42c0-17-13.8-30.8-30.8-30.8H37c-16.9,0-30.6,13.7-30.6,30.6
	v27v158.5c0,16.9,13.7,30.6,30.6,30.6h47.4c17,0,30.8-13.8,30.8-30.8v-61.6v-30.2H60.7z"/>
</svg>
