<?xml version="1.0" encoding="utf-8"?>
<!-- Generator: Adobe Illustrator 28.2.0, SVG Export Plug-In . SVG Version: 6.00 Build 0)  -->
<svg version="1.1" id="Layer_1" xmlns="http://www.w3.org/2000/svg" xmlns:xlink="http://www.w3.org/1999/xlink" x="0px" y="0px"
	 viewBox="0 0 1080 702" style="enable-background:new 0 0 1080 702;" xml:space="preserve">
<style type="text/css">
	.st0{fill:#222221;}
	.st1{fill:#06ABBA;}
	.st2{fill:#026C7A;}
</style>
<g>
</g>
<path d="M455.2,537.7v29.7l-34.1-0.1v-29.5h-37.8v120h37.8v-30.3l34.3,0.3V658c0,16.7-13.5,30.1-30.1,30.1h-46.4h0
	c-16.5,0-29.9-13.4-29.9-29.9v-94.3v-26.4c0-16.5,13.4-29.9,29.9-29.9h46.3C441.7,507.5,455.2,521,455.2,537.7z"/>
<path d="M514.6,688.1h-34.4V507.5h10.3c13.3,0,24.1,10.8,24.1,24.1V688.1z"/>
<path d="M183.1,470.8 M183.1,688.1h-34.4V446.7H159c13.3,0,24.1,10.8,24.1,24.1V688.1z"/>
<path d="M756.2,507.5h-93.7v30.7l17.5-0.2v150h34.4V537.8H752v150.3h34.1V537.4C786.1,520.9,772.7,507.5,756.2,507.5z"/>
<path d="M917.5,657.8v-120v-30.3H811.1v30.3H883v29.9h-41.9c-16.4,0-29.6,13.2-29.7,29.6l-0.2,61c-0.1,16.4,13.3,29.8,29.7,29.8
	h92.6v-30.3H917.5z M845.1,657.8v-60.2H883v60.2H845.1z"/>
<path d="M645.8,657.8v-120v-30.3H539.5v30.3h71.9v29.9h-41.9c-16.4,0-29.6,13.2-29.7,29.6l-0.2,61c-0.1,16.4,13.3,29.8,29.7,29.8
	h92.6v-30.3H645.8z M573.4,657.8v-60.2h37.9v60.2H573.4z"/>
<path d="M314.6,657.8v-120v-30.3H208.3v30.3h71.9v29.9h-41.9c-16.4,0-29.6,13.2-29.7,29.6l-0.2,61c-0.1,16.4,13.3,29.8,29.7,29.8
	h92.6v-30.3H314.6z M242.2,657.8v-60.2h37.9v60.2H242.2z"/>
<path d="M1059,643.2l-30.7,34.7c-12,13.6-33.2,13.6-45.2,0l-30.6-34.7V507.5h34.1v120.1l19.1,26.8l18.9-26.8V507.5h34.4V643.2z"/>
<path d="M70.2,568.1v29.5h18.9v60.2H51.5V477h37.6v30.6h34.4v-30.7c0-16.7-13.5-30.1-30.1-30.1H46.9c-16.5,0-29.9,13.4-29.9,29.9
	v26.4v155.1c0,16.5,13.4,29.9,29.9,29.9h46.4c16.7,0,30.1-13.5,30.1-30.1v-60.3v-29.5H70.2z"/>
<path class="st0" d="M670.7,84.1l58.3-53.2c2.7-2.5,7-0.2,6.5,3.5l-11.8,78c-0.4,2.7-3.3,5.6-5.7,2.9c0,0-15.2-13.7-21.1-16.8
	c-5.8-3.1-25.4-8.1-25.4-8.1C667.7,90.4,668.7,85.9,670.7,84.1z"/>
<polygon class="st1" points="445.6,57 520.3,13.9 652,89.9 585.8,209.6 "/>
<polygon class="st1" points="421.3,71 343.4,210.3 343.4,116 "/>
<polygon class="st2" points="441.1,206.6 550.6,331.2 589.9,382.1 520.3,422.4 370.8,337.9 "/>
<polygon class="st2" points="520.3,13.9 652,89.9 585.8,209.6 "/>
<polygon class="st1" points="441.1,206.6 520.3,422.4 370.8,337.9 "/>
<polygon class="st1" points="697.2,218.1 697.2,320.2 620.7,364.4 "/>
<path class="st0" d="M683.7,109.1l-29.4,61.6l12.3,5.9l29.3-61.6L683.7,109.1z M448.1,157.7l-6.6,1.5c-18,4-33.4,15.6-42.2,31.7
	l-6.3,11l11.8,6.8l6.4-11.1c7-12.7,19.1-21.8,33.3-25.1l6.6-1.5L448.1,157.7z M508.9,185.9c-6.9-10.1-16.4-18-27.6-22.9l-6.3-2.7
	l-5.4,12.5l6.2,2.7c8.8,3.8,16.4,10,22,18.3l17.3,23.1l10.9-8.2L508.9,185.9z M644.5,191.1l-16.4,34.4c-3.3,6-7.6,11.1-12.9,15.3
	l-5.4,4.2l8.5,10.7l5.3-4.2c6.8-5.4,12.3-11.9,16.6-19.8l16.6-34.8L644.5,191.1z M592.5,251.6l-6.8,0.3c-0.7,0-1.4,0-2,0
	c-15.5,0-30.5-7.3-40-19.6l-4.2-5.4l-10.8,8.4l4.2,5.4c12.3,15.8,30.8,24.9,50.8,24.9c0.8,0,1.6,0,2.5-0.1l6.8-0.2L592.5,251.6z
	 M381.8,221.6l-33.8,59.2l11.9,6.8l33.8-59.2L381.8,221.6z"/>
</svg>
