<?xml version="1.0" encoding="UTF-8"?>
<!DOCTYPE svg PUBLIC "-//W3C//DTD SVG 1.1//EN" "http://www.w3.org/Graphics/SVG/1.1/DTD/svg11.dtd">
<!-- Creator: CorelDRAW 2021 (64-Bit) -->
<svg xmlns="http://www.w3.org/2000/svg" xml:space="preserve" width="8.5in" height="11in" version="1.1" style="shape-rendering:geometricPrecision; text-rendering:geometricPrecision; image-rendering:optimizeQuality; fill-rule:evenodd; clip-rule:evenodd"
viewBox="0 0 8500 11000"
 xmlns:xlink="http://www.w3.org/1999/xlink"
 xmlns:xodm="http://www.corel.com/coreldraw/odm/2003">
 <defs>
  <style type="text/css">
   <![CDATA[
    .fil2 {fill:#FEFEFE;fill-rule:nonzero}
    .fil1 {fill:#026C7A;fill-rule:nonzero}
    .fil0 {fill:#06ABBA;fill-rule:nonzero}
   ]]>
  </style>
 </defs>
 <g id="Layer_x0020_1">
  <metadata id="CorelCorpID_0Corel-Layer"/>
  <polygon class="fil0" points="2243.3,2121.91 3809.67,1217.14 6568.88,2810.89 5182.15,5320.36 "/>
  <polygon class="fil0" points="1733.96,2415.46 102.96,5333.5 102.96,3357.47 "/>
  <polygon class="fil1" points="2150.19,5255.74 4443.88,7868.17 5268.69,8935.05 3809.67,9777.39 676.93,8007.28 "/>
  <polygon class="fil1" points="3809.67,1217.14 6568.88,2810.89 5182.15,5320.36 "/>
  <polygon class="fil0" points="2150.19,5255.74 3809.67,9777.39 676.93,8007.28 "/>
  <polygon class="fil0" points="7515.27,5497.81 7515.27,7637.05 5912.76,8562.63 "/>
  <g id="_1915738504224">
   <path class="fil2" d="M6959.92 2688.21l1221.33 -1113.98c56.96,-51.48 147.87,-3.29 135.82,72.3l-246.46 1635.37c-8.76,55.86 -69.01,118.3 -119.39,60.24 0,0 -318.75,-285.89 -441.43,-351.61 -120.49,-64.63 -533.44,-168.69 -533.44,-168.69 -78.87,-1.09 -58.06,-95.3 -16.43,-133.63z"/>
   <path class="fil2" d="M7232.67 3211.79l-615.59 1290.33 258.5 122.68 614.5 -1290.33 -257.41 -122.68zm-4935.7 1019.78l-139.11 31.76c-376.8,84.34 -698.84,327.51 -883.96,663.79l-131.44 231.12 247.55 142.4 133.63 -233.31c146.78,-266.17 399.81,-457.86 697.74,-524.68l139.11 -31.76 -63.53 -279.32zm1273.91 589.31c-143.49,-211.41 -343.94,-376.8 -578.35,-479.77l-131.44 -55.86 -113.92 261.79 130.35 56.96c185.11,79.96 342.85,210.31 460.05,383.38l362.56 484.15 228.93 -171.97 -358.18 -478.68zm2841.37 110.63l-342.85 721.84c-69.01,124.87 -158.83,232.22 -270.56,320.94l-112.82 88.72 178.54 223.45 111.73 -88.72c142.4,-112.82 257.41,-249.74 348.32,-414.05l347.23 -728.41 -259.6 -123.78zm-1089.89 1266.24l-142.4 5.48c-14.24,0 -28.48,0 -41.62,1.09 -325.32,0 -638.59,-153.35 -839.05,-410.76l-87.63 -112.82 -225.65 175.26 87.63 112.82c257.41,330.8 646.26,521.39 1065.79,521.39 17.53,-1.09 33.96,-1.09 51.48,-2.19l142.4 -4.38 -10.95 -285.89zm-4416.5 -626.55l-708.7 1242.14 248.65 142.4 708.7 -1242.14 -248.65 -142.4z"/>
  </g>
 </g>
</svg>
