<?xml version="1.0" encoding="utf-8"?>
<!-- Generator: Adobe Illustrator 28.2.0, SVG Export Plug-In . SVG Version: 6.00 Build 0)  -->
<svg version="1.1" id="Layer_1" xmlns="http://www.w3.org/2000/svg" xmlns:xlink="http://www.w3.org/1999/xlink" x="0px" y="0px"
	 viewBox="0 0 776 807" style="enable-background:new 0 0 776 807;" xml:space="preserve">
<style type="text/css">
	.st0{fill:#222221;}
	.st1{fill:#06ABBA;}
	.st2{fill:#026C7A;}
</style>
<path class="st0" d="M635.4,146.8L746.9,45.1c5.2-4.7,13.5-0.3,12.4,6.6L736.8,201c-0.8,5.1-6.3,10.8-10.9,5.5
	c0,0-29.1-26.1-40.3-32.1c-11-5.9-48.7-15.4-48.7-15.4C629.7,158.9,631.6,150.3,635.4,146.8z"/>
<polygon class="st1" points="204.8,95.1 347.8,12.5 599.7,158 473.1,387.1 "/>
<polygon class="st1" points="158.3,121.9 9.4,388.3 9.4,207.9 "/>
<polygon class="st2" points="196.3,381.2 405.7,619.7 481,717.1 347.8,794 61.8,632.4 "/>
<polygon class="st2" points="347.8,12.5 599.7,158 473.1,387.1 "/>
<polygon class="st1" points="196.3,381.2 347.8,794 61.8,632.4 "/>
<polygon class="st1" points="686.1,403.3 686.1,598.6 539.8,683.1 "/>
<path class="st0" d="M660.3,194.6l-56.2,117.8l23.6,11.2l56.1-117.8L660.3,194.6z M209.7,287.7l-12.7,2.9
	c-34.4,7.7-63.8,29.9-80.7,60.6l-12,21.1l22.6,13l12.2-21.3c13.4-24.3,36.5-41.8,63.7-47.9l12.7-2.9L209.7,287.7z M326,341.5
	c-13.1-19.3-31.4-34.4-52.8-43.8l-12-5.1l-10.4,23.9l11.9,5.2c16.9,7.3,31.3,19.2,42,35l33.1,44.2l20.9-15.7L326,341.5z
	 M585.4,351.6l-31.3,65.9c-6.3,11.4-14.5,21.2-24.7,29.3l-10.3,8.1l16.3,20.4l10.2-8.1c13-10.3,23.5-22.8,31.8-37.8l31.7-66.5
	L585.4,351.6z M485.9,467.2l-13,0.5c-1.3,0-2.6,0-3.8,0.1c-29.7,0-58.3-14-76.6-37.5l-8-10.3l-20.6,16l8,10.3
	c23.5,30.2,59,47.6,97.3,47.6c1.6-0.1,3.1-0.1,4.7-0.2l13-0.4L485.9,467.2z M82.7,410L18,523.4l22.7,13L105.4,423L82.7,410z"/>
</svg>
