<?xml version="1.0" encoding="UTF-8"?>
<!DOCTYPE svg PUBLIC "-//W3C//DTD SVG 1.1//EN" "http://www.w3.org/Graphics/SVG/1.1/DTD/svg11.dtd">
<!-- Creator: CorelDRAW 2021 (64-Bit) -->
<svg xmlns="http://www.w3.org/2000/svg" xml:space="preserve" width="8.5in" height="11in" version="1.1" style="shape-rendering:geometricPrecision; text-rendering:geometricPrecision; image-rendering:optimizeQuality; fill-rule:evenodd; clip-rule:evenodd"
viewBox="0 0 8500 11000"
 xmlns:xlink="http://www.w3.org/1999/xlink"
 xmlns:xodm="http://www.corel.com/coreldraw/odm/2003">
 <defs>
  <style type="text/css">
   <![CDATA[
    .fil3 {fill:#FEFEFE;fill-rule:nonzero}
    .fil0 {fill:black;fill-rule:nonzero}
    .fil2 {fill:#026C7A;fill-rule:nonzero}
    .fil1 {fill:#06ABBA;fill-rule:nonzero}
   ]]>
  </style>
 </defs>
 <g id="Layer_x0020_1">
  <metadata id="CorelCorpID_0Corel-Layer"/>
  <g id="_1916182272064">
   <g>
   </g>
   <path class="fil0" d="M4668.7 5472.45l0 180.23 -206.99 -0.79 0 -178.66 -229.03 0 0 727.22 229.81 0 0 -183.38 207.78 1.57 0 181.81c0,100.74 -81.85,182.59 -182.59,182.59l-280.97 -0.01 0 0c-99.95,0 -181.02,-81.06 -181.02,-181.02l0 -571.39 0 -159.77c0,-99.95 81.06,-181.02 181.02,-181.02l279.4 0c101.53,0 182.59,81.85 182.59,182.59z"/>
   <path class="fil0" d="M5029.17 6383.84l-208.56 0 0 -1093.98 62.18 0c80.28,0 146.39,65.32 146.39,146.39l-0 947.59z"/>
   <path class="fil0" d="M3021.44 5067.92m0 1315.93l-208.57 0 0 -1462.31 62.18 0c80.28,0 146.39,65.32 146.39,146.39l0 1315.93z"/>
   <path class="fil0" d="M6491.48 5289.86l-567.45 0 0 185.74 106.25 -0.79 0 908.24 208.56 0 0 -909.81 227.45 0 0 910.6 206.2 0 0 -912.18c0.79,-99.95 -81.06,-181.8 -181.02,-181.8z"/>
   <path class="fil0" d="M7468.19 6200.46l0 -727.22 0 -183.38 -643.8 -0 0 183.38 435.23 0 0 181.02 -253.43 0c-99.17,0 -179.44,80.28 -179.44,179.44l-1.57 369.12c0,99.95 80.28,180.23 179.44,180.23l560.37 -0 0 -183.38 -96.81 0 0 0.79zm-438.38 0l0 -364.4 229.81 -0 0 364.4 -229.81 0z"/>
   <path class="fil0" d="M5823.29 6200.46l0 -727.22 0 -183.38 -643.8 -0 0 183.38 435.23 0 0 181.02 -253.43 0c-99.17,0 -179.44,80.28 -179.44,179.44l-1.57 369.12c0,99.95 80.28,180.23 179.44,180.23l560.37 -0 0 -183.38 -96.81 0 0 0.79zm-438.38 0l0 -364.4 229.81 -0 0 364.4 -229.81 0z"/>
   <path class="fil0" d="M3817.92 6200.46l0 -727.22 0 -183.38 -643.8 -0 0 183.38 435.23 0 0 181.02 -253.43 0c-99.17,0 -179.44,80.28 -179.44,179.44l-1.57 369.12c0,99.95 80.28,180.23 179.44,180.23l560.37 -0 0 -183.38 -96.8 0 0 0.79zm-438.38 0l0 -364.4 229.81 -0 0 364.4 -229.81 0z"/>
   <path class="fil0" d="M8325.28 6111.53l-185.74 210.14c-72.41,82.64 -201.48,81.85 -273.89,0l-184.95 -210.14 -0 -821.67 206.2 0 0 727.22 115.69 162.13 114.12 -162.13 0 -727.22 208.57 0 0 821.67z"/>
   <path class="fil0" d="M2337.5 5656.62l0 178.66 114.12 0 0 364.4 -227.46 0 0 -1094.77 227.46 0 0 184.95 208.56 0 0 -185.74c0,-100.74 -81.85,-182.59 -182.59,-182.59l-280.97 0c-99.95,0 -181.02,81.06 -181.02,181.02l0 159.77 0 939.72c0,99.95 81.06,181.02 181.02,181.02l280.97 0c100.74,0 182.59,-81.85 182.59,-182.59l0 -365.19 0 -178.66 -322.69 0z"/>
   <polygon class="fil1" points="535.97,4746.02 869.68,4553.19 1457.59,4892.41 1161.67,5426.81 "/>
   <polygon class="fil1" points="428.15,4808.19 80.28,5429.95 80.28,5008.89 "/>
   <polygon class="fil2" points="516.3,5413.43 1005.05,5969.07 1180.56,6196.53 869.68,6375.97 202.27,5998.98 "/>
   <polygon class="fil2" points="869.68,4553.19 1457.59,4892.41 1161.67,5426.81 "/>
   <polygon class="fil1" points="516.3,5413.43 869.68,6375.97 202.27,5998.98 "/>
   <polygon class="fil1" points="1659.07,5464.58 1659.07,5920.28 1317.5,6117.04 "/>
   <g>
    <path class="fil3" d="M1540.23 4866.44l259.72 -237.69c11.81,-11.02 31.48,-0.79 29.12,15.74l-51.94 347.87c-1.57,11.81 -14.95,25.19 -25.19,12.59 0,0 -67.69,-60.6 -93.66,-74.77 -25.97,-13.38 -113.33,-36.2 -113.33,-36.2 -17.31,0.78 -13.38,-19.68 -4.72,-27.55z"/>
    <path class="fil3" d="M1598.47 4978.19l-131.44 274.68 55.09 25.97 130.65 -274.68 -54.31 -25.97zm-1050.69 216.44l-29.91 7.08c-80.28,18.1 -148.75,70.05 -188.1,141.67l-28.33 48.8 52.73 29.91 28.33 -49.58c31.48,-56.67 85,-97.59 148.75,-111.76l29.91 -7.08 -13.38 -59.02zm271.53 125.93c-30.69,-44.86 -73.19,-80.28 -122.78,-102.31l-28.33 -11.81 -24.4 55.88 27.55 11.81c39.35,17.31 73.19,44.86 98.38,81.85l77.13 103.1 48.8 -36.2 -76.34 -102.31zm604.44 23.61l-73.19 153.47c-14.95,26.76 -33.84,49.58 -57.45,68.47l-23.61 18.89 37.78 48.01 23.61 -18.89c29.91,-23.61 55.09,-53.52 73.98,-88.15l73.98 -155.05 -55.09 -26.76zm-232.17 269.17l-30.69 1.57c-3.15,0 -6.3,0 -8.66,0 -69.26,0 -136.16,-33.06 -178.66,-87.36l-18.89 -23.61 -48.01 36.99 18.89 23.61c55.09,70.05 137.73,110.97 226.67,110.97 3.94,0 7.08,0 11.02,-0.79l30.69 -0.79 -2.36 -60.6zm-940.51 -133.01l-151.11 264.44 52.73 29.91 151.11 -264.44 -52.73 -29.91z"/>
   </g>
  </g>
 </g>
</svg>
