<?xml version="1.0" encoding="utf-8"?>
<!-- Generator: Adobe Illustrator 28.2.0, SVG Export Plug-In . SVG Version: 6.00 Build 0)  -->
<svg version="1.1" id="Layer_1" xmlns="http://www.w3.org/2000/svg" xmlns:xlink="http://www.w3.org/1999/xlink" x="0px" y="0px"
	 viewBox="0 0 525 589" style="enable-background:new 0 0 525 589;" xml:space="preserve">
<style type="text/css">
	.st0{fill:#06ABBA;}
	.st1{fill:#026C7A;}
	.st2{fill:#FFFFFF;}
</style>
<g>
	<polygon class="st0" points="504,151.6 504.1,368.3 504,433.7 259.7,574.8 258.2,573.8 169.1,522.5 15.4,433.7 15.4,151.6 
		259.7,10.5 	"/>
	<polygon points="504,433.7 259.7,575 15.4,433.7 15.4,151.6 259.7,10.5 339.9,293.7 	"/>
	<polygon class="st1" points="340.9,292.1 16.4,432.3 16.4,430.1 16.4,148 259.7,10.5 	"/>
	<path class="st2" d="M259.6,293.7v44.5H288v90.6h-56.6V156.6H288v46h51.8v-46.2c0-25.1-20.3-45.4-45.4-45.4h-69.8
		c-24.9,0-45,20.2-45,45v39.8v233.5c0,24.9,20.2,45,45,45h69.8c25.1,0,45.4-20.3,45.4-45.4v-90.8v-44.5H259.6z"/>
</g>
</svg>
