<?xml version="1.0" encoding="utf-8"?>
<!-- Generator: Adobe Illustrator 28.2.0, SVG Export Plug-In . SVG Version: 6.00 Build 0)  -->
<svg version="1.1" id="Layer_1" xmlns="http://www.w3.org/2000/svg" xmlns:xlink="http://www.w3.org/1999/xlink" x="0px" y="0px"
	 viewBox="0 0 1080 273" style="enable-background:new 0 0 1080 273;" xml:space="preserve">
<style type="text/css">
	.st0{fill:#222221;}
	.st1{fill:#06ABBA;}
	.st2{fill:#026C7A;}
</style>
<g>
	<g>
	</g>
	<path d="M593.2,133v22.9l-26.3-0.1v-22.7h-29.1v92.4H567v-23.3l26.4,0.2v23.1c0,12.8-10.4,23.2-23.2,23.2h-35.7l0,0
		c-12.7,0-23-10.3-23-23v-72.6v-20.3c0-12.7,10.3-23,23-23H570C582.9,109.8,593.2,120.2,593.2,133z"/>
	<path d="M639,248.8h-26.5v-139h7.9c10.2,0,18.6,8.3,18.6,18.6V248.8z"/>
	<path d="M383.9,81.6 M383.9,248.8h-26.5V63h7.9c10.2,0,18.6,8.3,18.6,18.6V248.8z"/>
	<path d="M824.8,109.8h-72.1v23.6l13.5-0.1v115.4h26.5V133.1h28.9v115.7h26.2V132.9C847.9,120.2,837.5,109.8,824.8,109.8z"/>
	<path d="M948.9,225.5v-92.4v-23.3h-81.8v23.3h55.3v23h-32.2c-12.6,0-22.8,10.2-22.8,22.8l-0.2,46.9c0,12.7,10.2,22.9,22.8,22.9
		h71.2v-23.3H948.9z M893.2,225.5v-46.3h29.2v46.3H893.2z"/>
	<path d="M739.9,225.5v-92.4v-23.3h-81.8v23.3h55.3v23h-32.2c-12.6,0-22.8,10.2-22.8,22.8l-0.2,46.9c0,12.7,10.2,22.9,22.8,22.9
		h71.2v-23.3H739.9z M684.2,225.5v-46.3h29.2v46.3H684.2z"/>
	<path d="M485.1,225.5v-92.4v-23.3h-81.8v23.3h55.3v23h-32.2c-12.6,0-22.8,10.2-22.8,22.8l-0.2,46.9c0,12.7,10.2,22.9,22.8,22.9
		h71.2v-23.3H485.1z M429.4,225.5v-46.3h29.2v46.3H429.4z"/>
	<path d="M1057.8,214.2l-23.6,26.7c-9.2,10.5-25.6,10.4-34.8,0l-23.5-26.7V109.8h26.2v92.4l14.7,20.6l14.5-20.6v-92.4h26.5V214.2z"
		/>
	<path d="M297,156.4v22.7h14.5v46.3h-28.9V86.3h28.9v23.5H338V86.2c0-12.8-10.4-23.2-23.2-23.2h-35.7c-12.7,0-23,10.3-23,23v20.3
		v119.4c0,12.7,10.3,23,23,23h35.7c12.8,0,23.2-10.4,23.2-23.2v-46.4v-22.7H297z"/>
	<path class="st0" d="M195.7,56l33-30.2c1.5-1.4,4-0.1,3.7,2L225.8,72c-0.2,1.5-1.9,3.2-3.2,1.6c0,0-8.6-7.7-11.9-9.5
		c-3.3-1.7-14.4-4.6-14.4-4.6C194.1,59.6,194.6,57,195.7,56z"/>
	<polygon class="st1" points="68.1,40.7 110.5,16.2 185.2,59.3 147.6,127.2 	"/>
	<polygon class="st1" points="54.4,48.6 10.2,127.6 10.2,74.1 	"/>
	<polygon class="st2" points="65.6,125.5 127.7,196.1 150,225 110.5,247.8 25.7,199.9 	"/>
	<polygon class="st2" points="110.5,16.2 185.2,59.3 147.6,127.2 	"/>
	<polygon class="st1" points="65.6,125.5 110.5,247.8 25.7,199.9 	"/>
	<polygon class="st1" points="210.8,132 210.8,189.9 167.4,214.9 	"/>
	<path class="st0" d="M203.1,70.2l-16.7,34.9l7,3.3l16.6-34.9L203.1,70.2z M69.6,97.7l-3.8,0.9c-10.2,2.3-18.9,8.9-23.9,18l-3.6,6.2
		l6.7,3.8l3.6-6.3c4-7.2,10.8-12.4,18.9-14.2l3.8-0.9L69.6,97.7z M104.1,113.7c-3.9-5.7-9.3-10.2-15.6-13l-3.6-1.5l-3.1,7.1l3.5,1.5
		c5,2.2,9.3,5.7,12.5,10.4l9.8,13.1l6.2-4.6L104.1,113.7z M180.9,116.7l-9.3,19.5c-1.9,3.4-4.3,6.3-7.3,8.7l-3,2.4l4.8,6.1l3-2.4
		c3.8-3,7-6.8,9.4-11.2l9.4-19.7L180.9,116.7z M151.4,150.9l-3.9,0.2c-0.4,0-0.8,0-1.1,0c-8.8,0-17.3-4.2-22.7-11.1l-2.4-3l-6.1,4.7
		l2.4,3c7,8.9,17.5,14.1,28.8,14.1c0.5,0,0.9,0,1.4-0.1l3.9-0.1L151.4,150.9z M31.9,134l-19.2,33.6l6.7,3.8l19.2-33.6L31.9,134z"/>
</g>
</svg>
